# xmcd
#
# Track frame offsets:
#	150
#	17839
#	41813
#	60776
#	79724
#	94554
#	112442
#	130919
#	155025
#	168300
#	183717
#
# Disc length: 2782 seconds
#
# Revision: 1
# Processed by: cddbd v1.5.2PL0 Copyright (c) Steve Scherf et al.
# Submitted via: audiograbber 1.83.01
#
DISCID=900adc0b
DTITLE=AZ Kenny Tsak and 56 Deluxe - Like I Do
DYEAR=1900
DGENRE=
TTITLE0=Like I Do 
TTITLE1=Full Time Lover
TTITLE2=Walkin' Shoes
TTITLE3=Blues Attitude
TTITLE4=12 Step Boogie
TTITLE5=Stoop Down Baby
TTITLE6=Down South Florida
TTITLE7=I Just Wanna Make Love To You
TTITLE8=My Tastee Cake
TTITLE9=All It Takes
TTITLE10=I'll Take You With Me
EXTD=
EXTT0=
EXTT1=
EXTT2=
EXTT3=
EXTT4=
EXTT5=
EXTT6=
EXTT7=
EXTT8=
EXTT9=
EXTT10=
PLAYORDER=
